Release info:

General
Format                                   : Matroska
Format version                           : Version 4 / Version 2
File size                                : 697 MiB
Duration                                 : 2h 4mn
Overall bit rate                         : 783 Kbps
Movie name                               : Anna Karenina 2012 DVDRip English

Video
ID                                       : 1
Format                                   : MPEG-4 Visual
Format profile                           : Simple@L3
Format settings, BVOP                    : No
Format settings, QPel                    : No
Format settings, GMC                     : No warppoints
Format settings, Matrix                  : Default (H.263)
Codec ID                                 : V_MS/VFW/FOURCC / XVID
Codec ID/Hint                            : XviD
Duration                                 : 2h 4mn
Bit rate                                 : 640 Kbps
Width                                    : 640 pixels
Height                                   : 272 pixels
Display aspect ratio                     : 2.35:1
Frame rate mode                          : Constant
Frame rate                               : 25.000 fps
Color space                              : YUV
Chroma subsampling                       : 4:2:0
Bit depth                                : 8 bits
Scan type                                : Progressive
Compression mode                         : Lossy
Bits/(Pixel*Frame)                       : 0.147
Stream size                              : 569 MiB (82%)
Title                                    : Anna Karenina 2012 DVDRip English
Language                                 : English
Default                                  : Yes
Forced                                   : No

Audio
ID                                       : 2
Format                                   : MPEG Audio
Format version                           : Version 1
Format profile                           : Layer 3
Mode                                     : Joint stereo
Mode extension                           : MS Stereo
Codec ID                                 : A_MPEG/L3
Codec ID/Hint                            : MP3
Duration                                 : 2h 4mn
Bit rate mode                            : Constant
Bit rate                                 : 128 Kbps
Channel(s)                               : 2 channels
Sampling rate                            : 48.0 KHz
Compression mode                         : Lossy
Stream size                              : 114 MiB (16%)
Title                                    : Anna Karenina 2012 DVDRip English
Language                                 : English
Default                                  : Yes
Forced                                   : No


Source:
credit to original movie ripper  (Thanks)

IMDB Info:

Set in late-19th-century Russia high-society, the aristocrat Anna Karenina enters into a life-changing affair with the affluent Count Vronsky.

Director: Joe Wright
Writers: Tom Stoppard (screenplay), Leo Tolstoy (novel)
Stars: Keira Knightley, Jude Law, Aaron Taylor-Johnson

Genres: Drama
 
http://www.imdb.com/title/tt1781769/

Screen Shot:
 
http://www.shotpix.com/images/85452202396434533586.png 
http://www.shotpix.com/images/44338162599519573674.png 
http://www.shotpix.com/images/34937265050914730241.png 
http://www.shotpix.com/images/79305377396480792805.png